<?xml version="1.0" encoding="UTF-8" standalone="no"?>
<svg
   width="700pt"
   height="700pt"
   version="1.1"
   viewBox="0 0 700 700"
   id="svg1182"
   sodipodi:docname="noun-paw-95882.svg"
   inkscape:version="1.1 (c68e22c387, 2021-05-23)"
   xmlns:inkscape="http://www.inkscape.org/namespaces/inkscape"
   xmlns:sodipodi="http://sodipodi.sourceforge.net/DTD/sodipodi-0.dtd"
   xmlns:xlink="http://www.w3.org/1999/xlink"
   xmlns="http://www.w3.org/2000/svg"
   xmlns:svg="http://www.w3.org/2000/svg">
  <sodipodi:namedview
     id="namedview1184"
     pagecolor="#ffffff"
     bordercolor="#666666"
     borderopacity="1.0"
     inkscape:pageshadow="2"
     inkscape:pageopacity="0.0"
     inkscape:pagecheckerboard="0"
     inkscape:document-units="pt"
     showgrid="false"
     inkscape:zoom="0.37653436"
     inkscape:cx="440.86282"
     inkscape:cy="564.35752"
     inkscape:window-width="1366"
     inkscape:window-height="705"
     inkscape:window-x="-8"
     inkscape:window-y="-8"
     inkscape:window-maximized="1"
     inkscape:current-layer="svg1182" />
  <defs
     id="defs1074">
    <symbol
       id="w"
       overflow="visible">
       
      <path
         d="m20.844-1.25c-1.0742 0.5625-2.1953 0.98438-3.3594 1.2656-1.168 0.28125-2.3828 0.42188-3.6406 0.42188-3.7812 0-6.7773-1.0508-8.9844-3.1562-2.2109-2.1133-3.3125-4.9766-3.3125-8.5938 0-3.625 1.1016-6.4922 3.3125-8.6094 2.207-2.1133 5.2031-3.1719 8.9844-3.1719 1.2578 0 2.4727 0.14844 3.6406 0.4375 1.1641 0.28125 2.2852 0.69922 3.3594 1.25v4.7031c-1.0859-0.73828-2.1523-1.2812-3.2031-1.625-1.0547-0.34375-2.1641-0.51562-3.3281-0.51562-2.0859 0-3.7266 0.66797-4.9219 2-1.1992 1.3359-1.7969 3.1797-1.7969 5.5312 0 2.3359 0.59766 4.1719 1.7969 5.5156 1.1953 1.3359 2.8359 2 4.9219 2 1.1641 0 2.2734-0.17188 3.3281-0.51562 1.0508-0.34375 2.1172-0.88281 3.2031-1.625z"
         id="path1005" style="fill:#F83303;stroke:#F83303 />
    </symbol>
    <symbol
       id="c"
       overflow="visible">
      <path
         d="m15.25-12.375c-0.48047-0.22656-0.95312-0.39453-1.4219-0.5-0.46875-0.10156-0.94531-0.15625-1.4219-0.15625-1.3984 0-2.4766 0.44922-3.2344 1.3438-0.75 0.89844-1.125 2.1797-1.125 3.8438v7.8438h-5.4375v-17.016h5.4375v2.7969c0.69531-1.1133 1.5-1.9258 2.4062-2.4375 0.90625-0.50781 1.9922-0.76562 3.2656-0.76562 0.17578 0 0.36719 0.011719 0.57812 0.03125 0.21875 0.011719 0.53125 0.042969 0.9375 0.09375z"
         id="path1008" style="fill:#F83303;stroke:#F83303" />
    </symbol>
    <symbol
       id="a"
       overflow="visible">
      <path
         d="m19.594-8.5469v1.5469h-12.719c0.13281 1.2734 0.59766 2.2305 1.3906 2.875 0.78906 0.63672 1.8945 0.95312 3.3125 0.95312 1.1445 0 2.3164-0.16406 3.5156-0.5 1.1953-0.34375 2.4297-0.85938 3.7031-1.5469v4.1875c-1.293 0.49219-2.5859 0.85547-3.875 1.0938-1.2812 0.25-2.5625 0.375-3.8438 0.375-3.0859 0-5.4805-0.78125-7.1875-2.3438-1.6992-1.5625-2.5469-3.7539-2.5469-6.5781 0-2.7812 0.83203-4.9609 2.5-6.5469 1.6758-1.5938 3.9844-2.3906 6.9219-2.3906 2.6758 0 4.8164 0.80859 6.4219 2.4219 1.6016 1.6055 2.4062 3.7578 2.4062 6.4531zm-5.5938-1.8125c0-1.0312-0.30469-1.8633-0.90625-2.5-0.59375-0.63281-1.3828-0.95312-2.3594-0.95312-1.0547 0-1.9062 0.29688-2.5625 0.89062s-1.0703 1.4492-1.2344 2.5625z"
         id="path1011" style="fill:#F83303;stroke:#F83303" />
    </symbol>
    <symbol
       id="e"
       overflow="visible">
      <path
         d="m10.234-7.6562c-1.1367 0-1.9922 0.19531-2.5625 0.57812-0.5625 0.38672-0.84375 0.95312-0.84375 1.7031 0 0.6875 0.22656 1.2305 0.6875 1.625 0.45703 0.38672 1.0977 0.57812 1.9219 0.57812 1.0195 0 1.8789-0.36328 2.5781-1.0938 0.69531-0.73828 1.0469-1.6602 1.0469-2.7656v-0.625zm8.3125-2.0469v9.7031h-5.4844v-2.5156c-0.73047 1.0312-1.5547 1.7812-2.4688 2.25-0.90625 0.46875-2.0117 0.70312-3.3125 0.70312-1.7617 0-3.1953-0.50781-4.2969-1.5312-1.0938-1.0312-1.6406-2.3672-1.6406-4.0156 0-1.9883 0.67969-3.4453 2.0469-4.375 1.375-0.9375 3.5312-1.4062 6.4688-1.4062h3.2031v-0.42188c0-0.86328-0.33984-1.4922-1.0156-1.8906-0.67969-0.40625-1.7344-0.60938-3.1719-0.60938-1.168 0-2.2578 0.12109-3.2656 0.35938-1 0.23047-1.9297 0.57812-2.7812 1.0469v-4.1562c1.1641-0.28125 2.332-0.49219 3.5-0.64062 1.1758-0.14453 2.3516-0.21875 3.5312-0.21875 3.0703 0 5.2852 0.60547 6.6406 1.8125 1.3633 1.2109 2.0469 3.1797 2.0469 5.9062z"
         id="path1014" style="fill:#F83303;stroke:#F83303"/>
    </symbol>
    <symbol
       id="b"
       overflow="visible">
      <path
         d="m8.5469-21.844v4.8281h5.6094v3.8906h-5.6094v7.2188c0 0.79297 0.15625 1.3281 0.46875 1.6094 0.32031 0.27344 0.94531 0.40625 1.875 0.40625h2.7969v3.8906h-4.6719c-2.1484 0-3.668-0.44531-4.5625-1.3438-0.89844-0.89453-1.3438-2.4141-1.3438-4.5625v-7.2188h-2.7031v-3.8906h2.7031v-4.8281z"
         id="path1017" style="fill:#F83303;stroke:#F83303" />
    </symbol>
    <symbol
       id="l"
       overflow="visible">
      <path
         d="m14.188-14.516v-9.125h5.4688v23.641h-5.4688v-2.4531c-0.75 1-1.5781 1.7344-2.4844 2.2031-0.89844 0.45703-1.9375 0.6875-3.125 0.6875-2.0938 0-3.8203-0.83203-5.1719-2.5-1.3438-1.6641-2.0156-3.8047-2.0156-6.4219 0-2.625 0.67188-4.7695 2.0156-6.4375 1.3516-1.6641 3.0781-2.5 5.1719-2.5 1.1758 0 2.2188 0.23438 3.125 0.70312s1.7344 1.2031 2.4844 2.2031zm-3.5781 11c1.1562 0 2.0391-0.42188 2.6562-1.2656 0.61328-0.85156 0.92188-2.0859 0.92188-3.7031 0-1.625-0.30859-2.8594-0.92188-3.7031-0.61719-0.85156-1.5-1.2812-2.6562-1.2812s-2.043 0.42969-2.6562 1.2812c-0.61719 0.84375-0.92188 2.0781-0.92188 3.7031 0 1.6172 0.30469 2.8516 0.92188 3.7031 0.61328 0.84375 1.5 1.2656 2.6562 1.2656z"
         id="path1020" style="fill:#F83303;stroke:#F83303"/>
    </symbol>
    <symbol
       id="k"
       overflow="visible">
      <path
         d="m11.672-3.5156c1.1562 0 2.0391-0.42188 2.6562-1.2656 0.61328-0.85156 0.92188-2.0859 0.92188-3.7031 0-1.625-0.30859-2.8594-0.92188-3.7031-0.61719-0.85156-1.5-1.2812-2.6562-1.2812-1.168 0-2.0625 0.42969-2.6875 1.2812-0.625 0.85547-0.9375 2.0898-0.9375 3.7031 0 1.6055 0.3125 2.8359 0.9375 3.6875 0.625 0.85547 1.5195 1.2812 2.6875 1.2812zm-3.625-11c0.75-1 1.5781-1.7344 2.4844-2.2031 0.91406-0.46875 1.9688-0.70312 3.1562-0.70312 2.0938 0 3.8125 0.83594 5.1562 2.5 1.3516 1.668 2.0312 3.8125 2.0312 6.4375 0 2.6172-0.67969 4.7578-2.0312 6.4219-1.3438 1.668-3.0625 2.5-5.1562 2.5-1.1875 0-2.2422-0.23438-3.1562-0.70312-0.90625-0.46875-1.7344-1.1953-2.4844-2.1875v2.4531h-5.4375v-23.641h5.4375z"
         id="path1023" style="fill:#F83303;stroke:#F83303" />
    </symbol>
    <symbol
       id="j"
       overflow="visible">
      <path
         d="m0.375-17.016h5.4375l4.5781 11.547 3.8906-11.547h5.4375l-7.1562 18.625c-0.71875 1.8945-1.5586 3.2188-2.5156 3.9688-0.96094 0.75781-2.2188 1.1406-3.7812 1.1406h-3.1562v-3.5781h1.7031c0.92578 0 1.5977-0.14844 2.0156-0.4375 0.41406-0.29297 0.74219-0.82031 0.98438-1.5781l0.14062-0.46875z"
         id="path1026" style="fill:#F83303;stroke:#F83303" />
    </symbol>
    <symbol
       id="i"
       overflow="visible">
      <path
         d="m2.8594-22.672h7.4375l5.1719 12.125 5.1875-12.125h7.4375v22.672h-5.5312v-16.594l-5.2344 12.234h-3.7031l-5.2188-12.234v16.594h-5.5469z"
         id="path1029" style="fill:#F83303;stroke:#F83303"/>
    </symbol>
    <symbol
       id="v"
       overflow="visible">
      <path
         d="m2.6094-17.016h5.4375v17.016h-5.4375zm0-6.625h5.4375v4.4375h-5.4375z"
         id="path1032" style="fill:#F83303;stroke:#F83303" />
    </symbol>
    <symbol
       id="h"
       overflow="visible">
      <path
         d="m2.6094-17.016h5.4375v16.719c0 2.2695-0.54688 4.0039-1.6406 5.2031-1.0938 1.207-2.6797 1.8125-4.75 1.8125h-2.6875v-3.5781h0.9375c1.0312 0 1.7383-0.23438 2.125-0.70312 0.38281-0.46094 0.57812-1.3711 0.57812-2.7344zm0-6.625h5.4375v4.4375h-5.4375z"
         id="path1035" style="fill:#F83303;stroke:#F83303" />
    </symbol>
    <symbol
       id="g"
       overflow="visible">
      <path
         d="m15.906-16.484v4.1406c-1.168-0.48828-2.293-0.85156-3.375-1.0938-1.0859-0.25-2.1055-0.375-3.0625-0.375-1.043 0-1.8125 0.13281-2.3125 0.39062-0.5 0.26172-0.75 0.65625-0.75 1.1875 0 0.4375 0.1875 0.77734 0.5625 1.0156 0.38281 0.23047 1.0664 0.40234 2.0469 0.51562l0.96875 0.125c2.7812 0.35547 4.6484 0.9375 5.6094 1.75 0.96875 0.8125 1.4531 2.0859 1.4531 3.8125 0 1.8125-0.67188 3.1797-2.0156 4.0938-1.3359 0.90625-3.3281 1.3594-5.9844 1.3594-1.1172 0-2.2773-0.089844-3.4844-0.26562-1.1992-0.17578-2.4297-0.44141-3.6875-0.79688v-4.125c1.082 0.52344 2.1914 0.91797 3.3281 1.1875 1.1328 0.26172 2.2891 0.39062 3.4688 0.39062 1.0625 0 1.8594-0.14453 2.3906-0.4375 0.53906-0.30078 0.8125-0.73828 0.8125-1.3125 0-0.48828-0.1875-0.84766-0.5625-1.0781-0.36719-0.23828-1.1016-0.42578-2.2031-0.5625l-0.95312-0.125c-2.418-0.30078-4.1172-0.85938-5.0938-1.6719-0.96875-0.82031-1.4531-2.0703-1.4531-3.75 0-1.8008 0.61328-3.1328 1.8438-4 1.2383-0.875 3.1328-1.3125 5.6875-1.3125 1 0 2.0508 0.078125 3.1562 0.23438 1.1016 0.14844 2.3047 0.38281 3.6094 0.70312z"
         id="path1038" style="fill:#F83303;stroke:#F83303" />
    </symbol>
    <symbol
       id="u"
       overflow="visible">
      <path
         d="m8.7031-18.266v13.844h2.0938c2.3945 0 4.2227-0.58594 5.4844-1.7656 1.2578-1.1875 1.8906-2.9102 1.8906-5.1719 0-2.25-0.63281-3.9609-1.8906-5.1406-1.25-1.1758-3.0781-1.7656-5.4844-1.7656zm-5.8438-4.4062h6.1562c3.4453 0 6.0156 0.24609 7.7031 0.73438 1.6875 0.49219 3.1289 1.3242 4.3281 2.5 1.0703 1.0234 1.8633 2.1992 2.375 3.5312 0.51953 1.3359 0.78125 2.8516 0.78125 4.5469 0 1.7109-0.26172 3.2344-0.78125 4.5781-0.51172 1.3438-1.3047 2.5273-2.375 3.5469-1.2109 1.1797-2.668 2.0117-4.375 2.5-1.6992 0.49219-4.25 0.73438-7.6562 0.73438h-6.1562z"
         id="path1041"  style="fill:#F83303;stroke:#F83303"/>
    </symbol>
    <symbol
       id="f"
       overflow="visible">
      <path
         d="m2.6094-23.641h5.4375v12.875l6.2656-6.25h6.3125l-8.3125 7.8125 8.9688 9.2031h-6.5938l-6.6406-7.0938v7.0938h-5.4375z"
         id="path1044" style="fill:#F83303;stroke:#F83303" />
    </symbol>
    <symbol
       id="t"
       overflow="visible">
      <path
         d="m13.812-23.641v3.5781h-3.0156c-0.77344 0-1.3086 0.14062-1.6094 0.42188-0.30469 0.27344-0.45312 0.75-0.45312 1.4375v1.1875h4.6406v3.8906h-4.6406v13.125h-5.4375v-13.125h-2.7031v-3.8906h2.7031v-1.1875c0-1.8516 0.51562-3.2227 1.5469-4.1094 1.0312-0.88281 2.6289-1.3281 4.7969-1.3281z"
         id="path1047" style="fill:#F83303;stroke:#F83303" />
    </symbol>
    <symbol
       id="d"
       overflow="visible">
      <path
         d="m10.703-13.531c-1.1992 0-2.1172 0.43359-2.75 1.2969-0.63672 0.86719-0.95312 2.1172-0.95312 3.75 0 1.625 0.31641 2.8711 0.95312 3.7344 0.63281 0.86719 1.5508 1.2969 2.75 1.2969 1.1875 0 2.0938-0.42969 2.7188-1.2969 0.63281-0.86328 0.95312-2.1094 0.95312-3.7344 0-1.6328-0.32031-2.8828-0.95312-3.75-0.625-0.86328-1.5312-1.2969-2.7188-1.2969zm0-3.8906c2.9258 0 5.2109 0.79297 6.8594 2.375 1.6445 1.5742 2.4688 3.7617 2.4688 6.5625 0 2.793-0.82422 4.9805-2.4688 6.5625-1.6484 1.5742-3.9336 2.3594-6.8594 2.3594-2.9375 0-5.2344-0.78516-6.8906-2.3594-1.6484-1.582-2.4688-3.7695-2.4688-6.5625 0-2.8008 0.82031-4.9883 2.4688-6.5625 1.6562-1.582 3.9531-2.375 6.8906-2.375z"
         id="path1050" style="fill:#F83303;stroke:#F83303"/>
    </symbol>
    <symbol
       id="s"
       overflow="visible">
      <path
         d="m18.375-14.188c0.6875-1.0508 1.5039-1.8516 2.4531-2.4062 0.94531-0.55078 1.9883-0.82812 3.125-0.82812 1.957 0 3.4453 0.60547 4.4688 1.8125 1.0195 1.1992 1.5312 2.9492 1.5312 5.25v10.359h-5.4688v-8.875c0.007813-0.125 0.015625-0.25781 0.015625-0.40625 0.007812-0.14453 0.015625-0.34766 0.015625-0.60938 0-1.207-0.17969-2.082-0.53125-2.625-0.35547-0.53906-0.92969-0.8125-1.7188-0.8125-1.0312 0-1.8281 0.42969-2.3906 1.2812-0.5625 0.85547-0.85547 2.0859-0.875 3.6875v8.3594h-5.4688v-8.875c0-1.8828-0.16406-3.0977-0.48438-3.6406-0.32422-0.53906-0.90234-0.8125-1.7344-0.8125-1.043 0-1.8516 0.43359-2.4219 1.2969-0.5625 0.85547-0.84375 2.0742-0.84375 3.6562v8.375h-5.4688v-17.016h5.4688v2.5c0.66406-0.96875 1.4297-1.6914 2.2969-2.1719 0.875-0.48828 1.832-0.73438 2.875-0.73438 1.1758 0 2.2109 0.28906 3.1094 0.85938 0.90625 0.5625 1.5859 1.3555 2.0469 2.375z"
         id="path1053" style="fill:#F83303;stroke:#F83303"/>
    </symbol>
    <symbol
       id="r"
       overflow="visible">
      <path
         d="m19.719-10.359v10.359h-5.4688v-7.9062c0-1.4766-0.039062-2.4922-0.10938-3.0469-0.0625-0.5625-0.17188-0.97656-0.32812-1.25-0.21875-0.35156-0.51172-0.62891-0.875-0.82812-0.36719-0.19531-0.77734-0.29688-1.2344-0.29688-1.1367 0-2.0312 0.44531-2.6875 1.3281-0.64844 0.875-0.96875 2.0859-0.96875 3.625v8.375h-5.4375v-23.641h5.4375v9.125c0.82031-1 1.6914-1.7344 2.6094-2.2031 0.92578-0.46875 1.9453-0.70312 3.0625-0.70312 1.957 0 3.4453 0.60547 4.4688 1.8125 1.0195 1.1992 1.5312 2.9492 1.5312 5.25z"
         id="path1056" style="fill:#F83303;stroke:#F83303" />
    </symbol>
    <symbol
       id="q"
       overflow="visible">
      <path
         d="m2.8594-22.672h6.5312l8.25 15.547v-15.547h5.5469v22.672h-6.5469l-8.2344-15.562v15.562h-5.5469z"
         id="path1059" style="fill:#F83303;stroke:#F83303" />
    </symbol>
    <symbol
       id="p"
       overflow="visible">
      <path
         d="m2.4375-6.625v-10.391h5.4688v1.7031c0 0.92969-0.007812 2.0898-0.015625 3.4844-0.011719 1.3867-0.015625 2.3125-0.015625 2.7812 0 1.3672 0.03125 2.3516 0.09375 2.9531 0.070312 0.60547 0.19531 1.043 0.375 1.3125 0.21875 0.35547 0.50391 0.63281 0.85938 0.82812 0.36328 0.1875 0.78125 0.28125 1.25 0.28125 1.1328 0 2.0234-0.42969 2.6719-1.2969 0.64453-0.875 0.96875-2.0859 0.96875-3.6406v-8.4062h5.4375v17.016h-5.4375v-2.4531c-0.82422 0.99219-1.6953 1.7188-2.6094 2.1875-0.91797 0.46875-1.9297 0.70312-3.0312 0.70312-1.9609 0-3.4531-0.59766-4.4844-1.7969-1.0234-1.207-1.5312-2.9609-1.5312-5.2656z"
         id="path1062" style="fill:#F83303;stroke:#F83303" />
    </symbol>
    <symbol
       id="o"
       overflow="visible">
      <path
         d="m19.719-10.359v10.359h-5.4688v-7.9219c0-1.4688-0.039062-2.4766-0.10938-3.0312-0.0625-0.5625-0.17188-0.97656-0.32812-1.25-0.21875-0.35156-0.51172-0.62891-0.875-0.82812-0.36719-0.19531-0.77734-0.29688-1.2344-0.29688-1.1367 0-2.0312 0.44531-2.6875 1.3281-0.64844 0.875-0.96875 2.0859-0.96875 3.625v8.375h-5.4375v-17.016h5.4375v2.5c0.82031-1 1.6914-1.7344 2.6094-2.2031 0.92578-0.46875 1.9453-0.70312 3.0625-0.70312 1.957 0 3.4453 0.60547 4.4688 1.8125 1.0195 1.1992 1.5312 2.9492 1.5312 5.25z"
         id="path1065" style="fill:#F83303;stroke:#F83303" />
    </symbol>
    <symbol
       id="n"
       overflow="visible">
      <path
         d="m2.8594-22.672h9.7031c2.8828 0 5.0977 0.64062 6.6406 1.9219 1.5508 1.2812 2.3281 3.1055 2.3281 5.4688 0 2.375-0.77734 4.2031-2.3281 5.4844-1.543 1.2812-3.7578 1.9219-6.6406 1.9219h-3.8594v7.875h-5.8438zm5.8438 4.2344v6.3281h3.2344c1.1328 0 2.0078-0.27344 2.625-0.82812 0.625-0.55078 0.9375-1.332 0.9375-2.3438 0-1.0078-0.3125-1.7852-0.9375-2.3281-0.61719-0.55078-1.4922-0.82812-2.625-0.82812z"
         id="path1068" style="fill:#F83303;stroke:#F83303" />
    </symbol>
    <symbol
       id="m"
       overflow="visible">
      <path
         d="m16.359-16.484v4.4375c-0.74219-0.50781-1.4844-0.88281-2.2344-1.125-0.74219-0.23828-1.5117-0.35938-2.3125-0.35938-1.5117 0-2.6953 0.44531-3.5469 1.3281-0.84375 0.88672-1.2656 2.125-1.2656 3.7188 0 1.5859 0.42188 2.8203 1.2656 3.7031 0.85156 0.88672 2.0352 1.3281 3.5469 1.3281 0.85156 0 1.6602-0.125 2.4219-0.375 0.76953-0.25 1.4766-0.625 2.125-1.125v4.4531c-0.85547 0.3125-1.7188 0.54688-2.5938 0.70312s-1.75 0.23438-2.625 0.23438c-3.0742 0-5.4766-0.78516-7.2031-2.3594-1.7305-1.5703-2.5938-3.7578-2.5938-6.5625 0-2.8125 0.86328-5.0039 2.5938-6.5781 1.7266-1.5703 4.1289-2.3594 7.2031-2.3594 0.88281 0 1.7578 0.078125 2.625 0.23438 0.86328 0.15625 1.7266 0.39062 2.5938 0.70312z"
         id="path1071"style="fill:#F83303;stroke:#F83303" />
    </symbol>
  </defs>
  <g
     id="g1180">
    <path
       d="m354.21 480.89s346.19 4.5742 177.27-137.33c-49.891-41.906-143.48-95.715-253.55-60.312-57.93 18.637-253.55 95.211-116.3 213.84 0.003906 0 95.18 92.238 192.59-16.195z"
       id="path1076" style="fill:#F83303;stroke:#F83303"/>
    <path
       d="m135.9 330.56c21.012 8.6172 57.574-18.406 58.148-69.781 0.1875-16.469-4.2109-61.523-44.195-48.852-28.461 9.0156-120.14 75.078-13.953 118.63z"
       id="path1078" style="fill:#F83303;stroke:#F83303" />
    <path
       d="m245.21 263.64c21.023 8.5859 57.605-18.406 58.148-69.789 0.17578-16.465-4.3125-61.824-44.195-48.852-28.41 9.2422-117.94 76.148-13.953 118.64z"
       id="path1080" />
    <path
       d="m554.48 221.64c-20.652 2.3008-48.012 27.895-38.168 74.02 3.1484 14.758 16.863 55.801 49.168 35.055 23.066-14.82 102.97-121.79-11-109.07z"
       id="path1082" style="fill:#F83303;stroke:#F83303" />
    <path
       d="m464.75 153.23c-22.887 2.5508-53.168 30.883-42.266 81.953 3.4844 16.348 18.684 61.785 54.445 38.797 25.539-16.398 114-134.82-12.18-120.75z"
       id="path1084" style="fill:#F83303;stroke:#F83303"/>
    <path
       d="m361.5 122.28c-22.879 2.5508-53.164 30.883-42.266 81.953 3.4844 16.348 18.684 61.781 54.449 38.797 25.531-16.402 114-134.83-12.184-120.75z"
       id="path1086" style="fill:#F83303;stroke:#F83303"/>
    <path
       d="m124.26 196.79s38.633 6.4844 46.473-2.1016c12.551-13.746-3.3711-74.363-3.3711-74.363s-45.559 45.344-43.102 76.465z"
       id="path1088" style="fill:#F83303;stroke:#F83303" />
    <path
       d="m236.48 127.82s38.613 6.5938 46.48-1.9648c12.594-13.707-3.1484-74.375-3.1484-74.375s-45.703 45.211-43.332 76.34z"
       id="path1090" style="fill:#F83303;stroke:#F83303" />
    <path
       d="m361.17 100.52s38.516 7.1367 46.504-1.3125c12.785-13.52-2.1016-74.398-2.1016-74.398 0-0.003907-46.332 44.543-44.402 75.711z"
       id="path1092" style="fill:#F83303;stroke:#F83303"/>
    <path
       d="m515.22 130.32s-38.965 4.0391-46.25-5.0273c-11.668-14.504 8.0312-73.996 8.0312-73.996 0 0.003906 42.629 48.113 38.219 79.023z"
       id="path1094" style="fill:#F83303;stroke:#F83303" />
    <path
       d="m590.34 199.06s-31.453 3.2617-37.328-4.0586c-9.4258-11.711 6.4766-59.738 6.4766-59.738s34.402 38.84 30.852 63.797z"
       id="path1096" style="fill:#F83303;stroke:#F83303" />
    <use
       x="70"
       y="653.332031"
       xlink:href="#w"
       id="use1098" />
    <use
       x="92.832031"
       y="653.332031"
       xlink:href="#c"
       id="use1100" />
    <use
       x="108.175781"
       y="653.332031"
       xlink:href="#a"
       id="use1102" />
    <use
       x="129.273437"
       y="653.332031"
       xlink:href="#e"
       id="use1104" />
    <use
       x="150.269531"
       y="653.332031"
       xlink:href="#b"
       id="use1106" />
    <use
       x="165.140625"
       y="653.332031"
       xlink:href="#a"
       id="use1108" />
    <use
       x="186.242188"
       y="653.332031"
       xlink:href="#l"
       id="use1110" />
    <use
       x="219.34375"
       y="653.332031"
       xlink:href="#k"
       id="use1112" />
    <use
       x="241.613281"
       y="653.332031"
       xlink:href="#j"
       id="use1114" />
    <use
       x="272.722656"
       y="653.332031"
       xlink:href="#i"
       id="use1116" />
    <use
       x="303.683594"
       y="653.332031"
       xlink:href="#e"
       id="use1118" />
    <use
       x="324.675781"
       y="653.332031"
       xlink:href="#b"
       id="use1120" />
    <use
       x="339.546875"
       y="653.332031"
       xlink:href="#b"
       id="use1122" />
    <use
       x="354.421875"
       y="653.332031"
       xlink:href="#v"
       id="use1124" />
    <use
       x="365.085938"
       y="653.332031"
       xlink:href="#h"
       id="use1126" />
    <use
       x="375.75"
       y="653.332031"
       xlink:href="#g"
       id="use1128" />
    <use
       x="405.097656"
       y="653.332031"
       xlink:href="#u"
       id="use1130" />
    <use
       x="430.921875"
       y="653.332031"
       xlink:href="#a"
       id="use1132" />
    <use
       x="452.023438"
       y="653.332031"
       xlink:href="#f"
       id="use1134" />
    <use
       x="472.710937"
       y="653.332031"
       xlink:href="#f"
       id="use1136" />
    <use
       x="493.402344"
       y="653.332031"
       xlink:href="#a"
       id="use1138" />
    <use
       x="514.503906"
       y="653.332031"
       xlink:href="#c"
       id="use1140" />
    <use
       x="529.847656"
       y="653.332031"
       xlink:href="#g"
       id="use1142" />
    <use
       x="70"
       y="684.445312"
       xlink:href="#t"
       id="use1144" />
    <use
       x="83.535156"
       y="684.445312"
       xlink:href="#c"
       id="use1146" />
    <use
       x="98.878906"
       y="684.445312"
       xlink:href="#d"
       id="use1148" />
    <use
       x="120.25"
       y="684.445312"
       xlink:href="#s"
       id="use1150" />
    <use
       x="163.5"
       y="684.445312"
       xlink:href="#b"
       id="use1152" />
    <use
       x="178.371094"
       y="684.445312"
       xlink:href="#r"
       id="use1154" />
    <use
       x="200.519531"
       y="684.445312"
       xlink:href="#a"
       id="use1156" />
    <use
       x="232.453125"
       y="684.445312"
       xlink:href="#q"
       id="use1158" />
    <use
       x="258.488281"
       y="684.445312"
       xlink:href="#d"
       id="use1160" />
    <use
       x="279.863281"
       y="684.445312"
       xlink:href="#p"
       id="use1162" />
    <use
       x="302.011719"
       y="684.445312"
       xlink:href="#o"
       id="use1164" />
    <use
       x="334.992188"
       y="684.445312"
       xlink:href="#n"
       id="use1166" />
    <use
       x="357.792969"
       y="684.445312"
       xlink:href="#c"
       id="use1168" />
    <use
       x="373.136719"
       y="684.445312"
       xlink:href="#d"
       id="use1170" />
    <use
       x="394.507812"
       y="684.445312"
       xlink:href="#h"
       id="use1172" />
    <use
       x="405.171875"
       y="684.445312"
       xlink:href="#a"
       id="use1174" />
    <use
       x="426.273437"
       y="684.445312"
       xlink:href="#m"
       id="use1176" />
    <use
       x="444.714844"
       y="684.445312"
       xlink:href="#b"
       id="use1178" />
  </g>
  <path
     style="fill:#F83303;stroke:#F83303;stroke-width:7.09859;stroke-linecap:round;stroke-linejoin:round;paint-order:fill markers stroke"
     d=""
     id="path1377"
     transform="scale(0.75)" />
  <rect
     style="fill:#F83303;stroke:#F83303;stroke-width:3.04724;stroke-linecap:round;stroke-linejoin:round;stroke-miterlimit:4;stroke-dasharray:none;stroke-opacity:1;paint-order:fill markers stroke"
     id="rect1670"
     width="733.59009"
     height="137.81549"
     x="-15.386624"
     y="566.30347"
     ry="3.0625591" />
</svg>
